<?xml version="1.0" encoding="utf-8"?>
<svg viewBox="128 128 256 256" xmlns="http://www.w3.org/2000/svg" xmlns:bx="https://boxy-svg.com">
  <ellipse style="stroke: rgb(0, 0, 0); stroke-width: 2px; fill: rgb(146, 188, 44);" cx="256" cy="256" rx="128" ry="128"/>
  <path clip-rule="evenodd" d="M 288.076 160.187 C 288.215 159.988 288.491 159.94 288.69 160.079 L 302.323 169.625 C 302.522 169.765 302.57 170.039 302.431 170.238 L 283.457 197.338 C 292.682 200.285 298.967 203.464 298.967 203.464 C 298.967 203.464 283.604 229.887 257.549 229.887 C 231.494 229.887 212.98 205.26 212.98 205.26 C 212.98 205.26 219.545 201.071 229.276 197.477 L 208.463 172.673 C 208.307 172.487 208.331 172.21 208.517 172.052 L 221.267 161.354 C 221.453 161.198 221.732 161.223 221.888 161.409 L 248.24 192.815 C 250.496 192.559 252.796 192.416 255.115 192.416 C 258.449 192.416 261.779 192.67 265.03 193.1 L 288.076 160.187 Z M 293.231 231.139 C 300.184 226.173 310.706 213.212 310.706 213.212 C 310.706 213.212 337.58 234.509 337.58 279.666 C 337.58 324.822 291.118 351.999 291.118 351.999 C 291.118 351.999 268.919 329.581 263.47 301.164 C 258.021 272.745 271.531 241.189 271.531 241.189 C 271.531 241.189 286.277 236.105 293.231 231.139 Z M 218.348 231.139 C 211.396 226.173 200.874 213.212 200.874 213.212 C 200.874 213.212 174 234.509 174 279.666 C 174 324.822 220.462 351.999 220.462 351.999 C 220.462 351.999 242.66 329.581 248.11 301.164 C 253.559 272.745 240.049 241.189 240.049 241.189 C 240.049 241.189 225.302 236.105 218.348 231.139 Z" fill="#fff" fill-rule="evenodd" style="" bx:origin="0 0.000002"/>
</svg>