<?xml version="1.0" encoding="utf-8"?>
<svg viewBox="128 128 256 256" xmlns="http://www.w3.org/2000/svg">
  <ellipse style="stroke: rgb(0, 0, 0); stroke-width: 2px; fill: rgb(89, 87, 97);" cx="256" cy="256" rx="128" ry="128"/>
  <path fill-rule="evenodd" clip-rule="evenodd" d="M 246.147 329.819 C 249.794 330.377 253.529 330.667 257.333 330.667 C 297.835 330.667 330.667 297.835 330.667 257.333 C 330.667 216.832 297.835 184 257.333 184 C 254.616 184 251.933 184.148 249.293 184.435 C 269.383 199.657 282.667 226.024 282.667 256.001 C 282.667 287.514 267.984 315.04 246.147 329.819 Z M 256.001 352 C 309.019 352 352 309.019 352 256.001 C 352 202.981 309.019 160 256.001 160 C 202.981 160 160 202.981 160 256.001 C 160 309.019 202.981 352 256.001 352 Z" fill="white" style=""/>
</svg>