<?xml version="1.0" encoding="utf-8"?>
<svg viewBox="128 128 256 256" xmlns="http://www.w3.org/2000/svg" xmlns:bx="https://boxy-svg.com">
  <ellipse style="stroke: rgb(0, 0, 0); stroke-width: 2px; fill: rgb(12, 105, 200);" cx="256" cy="256" rx="128" ry="128"/>
  <path fill-rule="evenodd" clip-rule="evenodd" d="M 263.333 250.966 C 264.634 250.172 265.738 248.509 266.629 246.661 C 278.346 251.45 286.579 262.766 286.579 275.963 C 286.579 293.494 272.048 307.706 254.123 307.706 C 246.765 307.706 239.979 305.311 234.535 301.275 C 232.749 300.429 231.28 299.617 230.077 298.952 C 228.213 297.921 226.99 297.245 226.224 297.351 C 223.986 297.659 224.635 299.719 225.226 301.59 C 225.627 302.861 226.001 304.045 225.422 304.533 C 224.817 305.044 222.856 303.175 220.566 300.991 C 217.447 298.018 213.717 294.461 211.957 295.529 C 210.567 296.374 211.917 298.666 213.57 301.471 L 213.693 301.679 C 214.391 302.864 215.2 304.072 215.938 305.174 C 217.44 307.413 218.649 309.217 218.044 309.523 C 217.312 309.892 212.218 306.453 207.924 301.679 C 206.267 299.836 204.662 297.839 203.17 295.983 C 199.905 291.92 197.185 288.536 195.658 288.937 C 193.821 289.419 195.211 293.208 197.253 296.854 C 198.207 298.559 199.33 300.295 200.303 301.799 C 201.815 304.137 202.963 305.911 202.547 306.129 C 201.985 306.423 197.042 301.603 193.685 295.529 C 191.691 291.921 190.016 287.934 188.661 284.707 C 187.191 281.206 186.096 278.599 185.375 278.336 C 182.87 277.424 182.87 282.532 183.874 289.904 C 184.005 290.866 184.201 291.875 184.441 292.902 C 194.185 324.43 224.118 347.385 259.533 347.385 C 302.851 347.385 337.968 313.04 337.968 270.672 C 337.968 230.348 306.157 197.29 265.74 194.195 C 265.791 192.296 266.782 188.529 266.782 188.529 C 266.782 188.529 273.918 171.265 274.295 167.576 C 274.32 167.332 274.349 167.065 274.381 166.782 C 274.825 162.796 275.652 155.385 269.277 155.385 C 265.872 155.385 264.288 157.918 262.477 160.815 C 261.782 161.927 261.053 163.093 260.175 164.19 C 253.849 172.089 243.213 181.953 237.182 187.209 C 224.434 198.317 211.927 207.446 204.633 212.77 L 204.632 212.77 C 201.315 215.192 199.075 216.826 198.382 217.502 C 193.16 222.593 174.436 256.367 174.436 256.367 C 174.436 256.367 168.38 267.203 170.533 269.401 C 172.685 271.599 177.875 271.095 177.875 271.095 C 177.875 271.095 247.603 255.099 253.846 253.837 C 255.526 253.498 256.713 253.301 257.624 253.151 C 260.097 252.743 260.541 252.669 263.333 250.966 Z M 214.033 230.409 C 210.29 233.967 204.083 242.459 204.083 242.459 C 204.083 242.459 215.619 243.169 221.973 237.13 C 228.327 231.09 226.871 220.798 226.871 220.798 C 226.871 220.798 217.776 226.852 214.033 230.409 Z" fill="white" bx:origin="0.513168 0.5"/>
</svg>