<?xml version="1.0" encoding="utf-8"?>
<svg viewBox="128 128 256 256" xmlns="http://www.w3.org/2000/svg">
  <ellipse style="stroke: rgb(0, 0, 0); stroke-width: 2px; fill: rgb(242, 217, 78);" cx="256" cy="256" rx="128" ry="128"/>
  <path fill-rule="evenodd" clip-rule="evenodd" d="M 213.116 160.22 C 213.078 160.113 213.158 160 213.272 160 L 280.935 160 C 281.007 160 281.071 160.048 281.093 160.116 L 312.171 260.526 C 312.204 260.632 312.125 260.739 312.012 260.739 L 266.967 260.739 C 266.912 260.739 266.873 260.792 266.889 260.845 L 292.723 351.788 C 292.774 351.966 292.542 352.079 292.432 351.933 L 192.034 218.421 C 191.952 218.311 192.029 218.156 192.165 218.156 L 233.048 218.156 C 233.105 218.156 233.145 218.099 233.126 218.045 L 213.116 160.22 Z" fill="white" style=""/>
</svg>