<?xml version="1.0" encoding="utf-8"?>
<svg viewBox="128 128 256 256" xmlns="http://www.w3.org/2000/svg">
  <ellipse style="stroke: rgb(0, 0, 0); stroke-width: 2px; fill: rgb(238, 144, 230);" cx="256" cy="256" rx="128" ry="128"/>
  <path fill-rule="evenodd" clip-rule="evenodd" d="M 198.524 312.247 L 229.32 303.317 L 255.92 351.953 C 255.955 352.016 256.045 352.016 256.08 351.953 L 282.679 303.317 L 313.476 312.247 C 313.545 312.267 313.61 312.202 313.589 312.133 L 304.658 281.946 L 351.952 256.08 C 352.016 256.045 352.016 255.955 351.953 255.92 L 304.268 229.84 L 313.589 198.335 C 313.61 198.266 313.545 198.202 313.476 198.222 L 281.957 207.362 L 256.08 160.047 C 256.045 159.984 255.955 159.984 255.92 160.047 L 230.043 207.362 L 198.524 198.222 C 198.455 198.202 198.39 198.266 198.411 198.335 L 207.732 229.84 L 160.047 255.92 C 159.984 255.955 159.984 256.045 160.047 256.08 L 207.342 281.946 L 198.411 312.133 C 198.39 312.202 198.455 312.267 198.524 312.247 Z M 222.422 256.332 L 244.239 268.264 L 256.172 290.082 C 256.206 290.145 256.297 290.145 256.332 290.082 L 268.264 268.264 L 290.082 256.332 C 290.145 256.297 290.145 256.206 290.082 256.172 L 268.264 244.239 L 256.332 222.422 C 256.297 222.358 256.206 222.358 256.172 222.422 L 244.239 244.239 L 222.422 256.172 C 222.359 256.206 222.359 256.297 222.422 256.332 Z" fill="white"/>
</svg>