<?xml version="1.0" encoding="utf-8"?>
<svg viewBox="128 128 256 256" xmlns="http://www.w3.org/2000/svg">
  <ellipse style="stroke: rgb(0, 0, 0); stroke-width: 2px; fill: rgb(211, 66, 95);" cx="256" cy="256" rx="128" ry="128"/>
  <path fill-rule="evenodd" clip-rule="evenodd" d="M 193.113 175.962 C 195.436 166.788 203.748 160 213.644 160 C 221.067 160 227.598 163.819 231.38 169.6 L 237.572 169.6 C 241.419 165.652 246.794 163.2 252.742 163.2 C 261.462 163.2 268.952 168.47 272.199 176 L 277.383 176 C 280.632 173.972 284.47 172.8 288.582 172.8 C 297.303 172.8 304.792 178.07 308.039 185.6 L 322.137 185.6 C 322.257 185.6 322.37 185.632 322.467 185.689 C 323.111 185.63 323.763 185.6 324.422 185.6 C 336.119 185.6 345.6 195.082 345.6 206.778 L 345.6 270.282 L 345.6 270.4 L 345.6 270.517 L 345.6 271.432 C 345.6 271.819 345.59 272.205 345.569 272.589 C 344.294 316.644 304.681 352 256 352 C 206.516 352 166.4 315.466 166.4 270.4 C 166.4 248.646 175.747 228.881 190.983 214.253 C 190.945 235.46 191.303 257.385 192.954 257.009 C 197.376 256.001 193.921 190.315 193.113 175.962 Z" fill="white"/>
</svg>