<?xml version="1.0" encoding="utf-8"?>
<svg viewBox="128 128 256 256" xmlns="http://www.w3.org/2000/svg">
  <ellipse style="stroke: rgb(0, 0, 0); stroke-width: 2px; fill: rgb(251, 165, 76);" cx="256" cy="256" rx="128" ry="128"/>
  <path fill-rule="evenodd" clip-rule="evenodd" d="M 292.197 308.273 C 294.569 299.599 289.964 281.767 289.964 281.767 C 289.964 281.767 286.625 296.294 281.406 301.663 C 276.954 306.243 271.5 309.419 263.677 310.254 C 270.073 307.148 274.471 300.67 274.471 293.183 C 274.471 282.674 265.804 274.154 255.113 274.154 C 244.422 274.154 235.754 282.674 235.754 293.183 C 235.754 296.054 236.401 298.776 237.559 301.216 C 230.872 295.889 229.82 287.348 229.82 287.348 C 229.82 287.348 222.353 318.349 242.928 332.932 C 263.502 347.515 303.807 334.981 303.807 334.981 C 303.807 334.981 246.129 375.564 203.388 331.394 C 166.571 293.344 193.779 243.251 193.779 243.251 C 193.779 243.251 192.604 247.898 192.604 253.293 C 192.604 258.687 195.529 262.792 195.529 262.792 C 195.529 262.792 204.253 244.402 211.043 236.923 C 217.469 229.846 225.524 224.105 232.482 219.147 C 237.838 215.33 242.543 211.977 245.353 208.834 C 260.832 191.526 251.342 160 251.342 160 C 251.342 160 268.79 175.383 273.662 195.249 C 275.519 202.822 274.324 211.439 273.256 219.144 C 271.522 231.652 270.12 241.76 282.647 241.104 C 302.891 240.044 285.3 208.834 285.3 208.834 C 285.3 208.834 331.219 232.969 327.789 275.18 C 324.358 317.39 277.596 326.987 277.596 326.987 C 277.596 326.987 289.824 316.947 292.197 308.273 Z" fill="white"/>
</svg>