<?xml version="1.0" encoding="utf-8"?>
<svg viewBox="128 128 256 256" xmlns="http://www.w3.org/2000/svg">
  <ellipse style="stroke: rgb(0, 0, 0); stroke-width: 2px; fill: rgb(161, 187, 236);" cx="256" cy="256" rx="128" ry="128"/>
  <path fill-rule="evenodd" clip-rule="evenodd" d="M 227.017 346.4 C 255.143 346.4 279.223 330.768 289.164 308.609 C 289.285 308.338 249.253 319.012 250.529 315.239 C 251.099 313.554 275.639 304.589 293.518 294.133 C 303.794 288.123 308.526 275.4 308.526 275.4 C 308.526 275.4 291.214 283.806 282.462 285.938 C 264.825 290.236 249.299 289.773 249.299 289.325 C 249.299 288.357 275.079 283.459 310.909 261.624 C 327.763 251.354 332.34 233.664 332.34 233.664 C 332.34 233.664 313.811 244.701 302.61 248.345 C 276.046 256.986 251.806 259.59 251.806 258.42 C 251.806 255.917 273.138 250.051 295.756 239.091 C 307.516 233.393 317.701 225.949 329.503 217.67 C 348.815 204.124 352 180 352 180 C 352 180 332.953 192.285 323.658 196.365 C 285.303 213.199 251.436 222.03 227.017 223.941 C 190.156 226.827 160 252.546 160 285.938 C 160 319.33 190.004 346.4 227.017 346.4 Z" fill="white"/>
</svg>