<?xml version="1.0" encoding="utf-8"?>
<svg viewBox="128 128 256 256" xmlns="http://www.w3.org/2000/svg">
  <ellipse style="stroke: rgb(0, 0, 0); stroke-width: 2px; fill: rgb(95, 109, 188);" cx="256" cy="256" rx="128" ry="128"/>
  <path fill-rule="evenodd" clip-rule="evenodd" d="M 298.357 351.335 C 281.039 352.222 261.211 352.222 254.473 351.335 C 201.914 344.421 160 305.992 160 254.05 C 160 202.108 202.981 160 256 160 C 309.02 160 352 202.108 352 254.05 C 352 278.208 342.703 300.238 327.423 316.895 C 323.273 321.418 328.967 324.591 334.751 327.814 C 340.424 330.976 346.185 334.186 342.837 338.767 C 339.148 343.815 319.147 350.271 298.357 351.335 Z M 242.5 242.294 C 242.5 250.41 235.784 256.989 227.5 256.989 C 219.216 256.989 212.5 250.41 212.5 242.294 C 212.5 236.851 215.521 232.099 220.009 229.559 C 220.268 236.636 226.086 242.293 233.226 242.293 L 242.5 242.293 C 242.5 242.293 242.5 242.294 242.5 242.294 Z M 288.991 229.559 C 288.733 236.636 282.914 242.293 275.774 242.293 L 266.5 242.293 C 266.5 242.293 266.5 242.294 266.5 242.294 C 266.5 250.41 273.216 256.989 281.5 256.989 C 289.784 256.989 296.5 250.41 296.5 242.294 C 296.5 236.851 293.48 232.099 288.991 229.559 Z" fill="white"/>
</svg>