<?xml version="1.0" encoding="utf-8"?>
<svg viewBox="128 128 256 256" xmlns="http://www.w3.org/2000/svg">
  <ellipse style="stroke: rgb(0, 0, 0); stroke-width: 2px; fill: rgb(95, 189, 88);" cx="256" cy="256" rx="128" ry="128"/>
  <path clip-rule="evenodd" d="M 205.756 315.575 C 205.187 315.038 204.623 314.492 204.065 313.934 C 174.645 284.513 174.645 236.811 204.065 207.389 C 233.487 177.967 327.234 176 327.234 176 C 327.234 176 340.032 284.513 310.61 313.934 C 284.48 340.064 243.931 342.987 214.575 322.704 L 238.228 293.676 L 276.042 285.512 L 245.176 282.427 L 264.792 262.454 L 287.12 257.563 L 269.465 252.333 L 287.12 220.481 L 262.007 248.651 L 252.308 234.965 L 255.722 257.563 L 238.228 277.282 L 230.12 252.332 L 230.12 285.512 L 205.756 315.575 Z" fill="#fff" fill-rule="evenodd" style=""/>
</svg>