<?xml version="1.0" encoding="utf-8"?>
<svg viewBox="128 128 256 256" xmlns="http://www.w3.org/2000/svg">
  <ellipse style="stroke: rgb(0, 0, 0); stroke-width: 2px; fill: rgb(218, 124, 77);" cx="256" cy="256" rx="128" ry="128"/>
  <path fill-rule="evenodd" clip-rule="evenodd" d="M 202.287 325.058 C 202.235 325.058 202.199 325.007 202.216 324.958 L 251.234 186.45 C 251.245 186.42 251.273 186.4 251.305 186.4 L 303.634 186.4 C 303.666 186.4 303.695 186.42 303.705 186.45 L 351.996 324.958 C 352.013 325.007 351.977 325.058 351.925 325.058 L 203.76 325.058 L 202.287 325.058 Z M 160.076 325.6 C 160.023 325.6 159.987 325.547 160.005 325.498 L 196.508 228.046 C 196.519 228.016 196.547 227.997 196.578 227.997 L 228.295 227.997 C 228.347 227.997 228.384 228.049 228.366 228.098 L 193.069 325.55 C 193.058 325.58 193.03 325.6 192.998 325.6 L 160.076 325.6 Z" fill="white"/>
</svg>