<?xml version="1.0" encoding="utf-8"?>
<svg viewBox="128 128 256 256" xmlns="http://www.w3.org/2000/svg">
  <ellipse style="stroke: rgb(0, 0, 0); stroke-width: 2px; fill: rgb(183, 99, 207);" cx="256" cy="256" rx="128" ry="128"/>
  <path fill-rule="evenodd" clip-rule="evenodd" d="M 320.433 307.543 C 339.822 292.041 352 269.641 352 244.731 C 352 197.935 309.02 160 256 160 C 202.981 160 160 197.935 160 244.731 C 160 268.742 171.315 290.42 189.496 305.838 C 188.394 309.642 187.79 313.78 187.79 318.108 C 187.79 336.826 199.1 352 213.053 352 C 222.119 352 230.07 345.593 234.527 335.97 C 238.984 345.593 246.934 352 256 352 C 264.265 352 271.602 346.677 276.211 338.446 C 280.82 346.677 288.157 352 296.421 352 C 310.374 352 321.685 336.826 321.685 318.108 C 321.685 314.419 321.245 310.868 320.433 307.543 Z M 311.579 246.412 C 311.579 270.169 286.13 289.429 254.737 289.429 C 223.344 289.429 197.895 270.169 197.895 246.412 C 197.895 222.654 223.344 203.394 254.737 203.394 C 286.13 203.394 311.579 222.654 311.579 246.412 Z" fill="white"/>
</svg>