<?xml version="1.0" encoding="utf-8"?>
<svg viewBox="128 128 256 256" xmlns="http://www.w3.org/2000/svg">
  <ellipse style="stroke: rgb(0, 0, 0); stroke-width: 2px; fill: rgb(250, 133, 129);" cx="256" cy="256" rx="128" ry="128"/>
  <path fill-rule="evenodd" clip-rule="evenodd" d="M 331.04 319.461 C 331.04 319.461 306.827 338.88 258.645 330.844 C 222.09 324.747 202.593 284.451 202.593 262.791 C 202.593 211.436 240.602 199.75 266.299 199.75 C 291.995 199.75 308.758 224.802 308.758 244.199 C 308.758 263.596 295.039 280.563 273.689 280.563 C 252.34 280.563 246.016 265.574 246.016 251.794 C 246.016 238.014 257.165 233.159 267.333 233.159 C 277.501 233.159 280.982 241.84 280.982 249.301 C 280.982 256.762 275.194 259.434 270.365 259.434 C 265.537 259.434 265.06 256.998 263.212 254.438 C 261.364 251.878 265.568 242.188 258.645 242.188 C 251.722 242.188 250.431 253.328 250.431 253.328 C 250.431 253.328 252.955 274.83 273.689 274.459 C 294.423 274.088 304.26 258.058 301.401 242.188 C 298.542 226.318 283.141 209.455 256.11 212.862 C 229.079 216.27 218.043 243.582 222.908 272.769 C 227.772 301.956 262.738 318.868 290.231 312.783 C 317.723 306.699 345.106 286.796 345.106 236.333 C 345.106 185.87 301.401 155.537 249.287 160.536 C 197.173 165.535 164.824 211.096 166.894 265.839 C 168.965 320.582 220.909 350.396 264.834 351.933 C 308.758 353.47 335.686 328.043 335.686 328.043 C 335.686 328.043 341.741 322.643 339.367 318.426 C 336.993 314.209 331.04 319.461 331.04 319.461 Z" fill="white" style="stroke: rgb(186, 218, 85);"/>
</svg>