<?xml version="1.0" encoding="utf-8"?>
<svg viewBox="128 128 256 256" xmlns="http://www.w3.org/2000/svg">
  <ellipse style="stroke: rgb(0, 0, 0); stroke-width: 2px; fill: rgb(201, 187, 138);" cx="256" cy="256" rx="128" ry="128"/>
  <path fill-rule="evenodd" clip-rule="evenodd" d="M 308.245 251.986 C 308.234 251.971 308.229 251.952 308.232 251.934 L 320.456 180.657 C 320.462 180.624 320.491 180.6 320.523 180.6 L 324.392 180.6 C 324.422 180.6 324.448 180.619 324.457 180.648 L 351.997 267.843 C 352.005 267.87 351.996 267.9 351.973 267.918 L 331.668 283.771 C 331.638 283.795 331.594 283.789 331.571 283.758 L 308.245 251.986 Z M 160 299.238 C 160 299.267 160.019 299.293 160.047 299.303 L 201.904 312.988 C 201.924 312.995 201.946 312.992 201.964 312.98 L 295.524 248.389 C 295.539 248.378 295.55 248.361 295.553 248.342 L 305.585 181.022 C 305.592 180.981 305.56 180.944 305.518 180.944 L 222.647 180.944 C 222.627 180.944 222.608 180.953 222.595 180.968 L 160.015 256.461 C 160.005 256.473 160 256.488 160 256.504 L 160 299.238 Z M 219.346 316.476 L 265.073 331.455 C 265.094 331.461 265.117 331.458 265.134 331.445 L 319.576 292.394 C 319.607 292.372 319.614 292.331 319.594 292.3 L 299.185 261.93 C 299.163 261.898 299.121 261.89 299.089 261.912 L 219.346 316.476 Z" fill="white"/>
</svg>