<?xml version="1.0" encoding="utf-8"?>
<svg viewBox="128 128 256 256" xmlns="http://www.w3.org/2000/svg">
  <ellipse style="stroke: rgb(0, 0, 0); stroke-width: 2px; fill: rgb(86, 149, 163);" cx="256" cy="256" rx="128" ry="128"/>
  <path fill-rule="evenodd" clip-rule="evenodd" d="M 160.019 256.098 C 159.994 256.055 159.994 256.001 160.019 255.957 L 208.298 173.469 C 208.323 173.427 208.369 173.4 208.419 173.4 L 304.11 173.4 C 304.16 173.4 304.206 173.427 304.232 173.47 L 351.981 255.957 C 352.006 256.001 352.006 256.054 351.981 256.097 L 304.232 338.492 C 304.206 338.535 304.16 338.562 304.11 338.562 L 208.419 338.562 C 208.369 338.562 208.323 338.536 208.298 338.493 L 160.019 256.098 Z M 300.482 255.981 C 300.482 280.539 280.573 300.448 256.015 300.448 C 231.457 300.448 211.549 280.539 211.549 255.981 C 211.549 231.423 231.457 211.515 256.015 211.515 C 280.573 211.515 300.482 231.423 300.482 255.981 Z" fill="white"/>
</svg>