<?xml version="1.0" encoding="utf-8"?>
<svg viewBox="128 128 256 256" xmlns="http://www.w3.org/2000/svg">
  <ellipse style="stroke: rgb(0, 0, 0); stroke-width: 2px; fill: rgb(83, 157, 223);" cx="256" cy="256" rx="128" ry="128"/>
  <path fill-rule="evenodd" clip-rule="evenodd" d="M 318.27 289.95 C 318.27 324.22 290.384 352.001 255.985 352.001 C 221.586 352.001 193.7 324.22 193.7 289.95 C 193.7 256.62 252.616 165.082 255.847 160.086 C 255.921 159.972 256.05 159.972 256.123 160.086 C 259.354 165.082 318.27 256.62 318.27 289.95 Z M 245.602 332.108 C 213.996 325.192 219.404 290.181 219.404 290.181 C 219.404 290.181 228.035 311.316 248.979 318.162 C 269.923 325.008 295.234 314.967 295.234 314.967 C 295.234 314.967 277.209 339.023 245.602 332.108 Z" fill="white"/>
</svg>