<?xml version="1.0" encoding="utf-8"?>
<svg version="1.1" id="Layer_1" x="0px" y="0px" viewBox="0 0.001 96 96" style="enable-background:new 0 0 511.985 511.985;" xmlns="http://www.w3.org/2000/svg">
  <path style="fill: rgb(238, 21, 21);" d="M 92.226 29.317 C 89.808 23.602 86.349 18.466 81.942 14.059 C 77.535 9.652 72.399 6.19 66.684 3.775 C 60.768 1.27 54.48 0.001 48 0.001 C 41.52 0.001 35.235 1.27 29.316 3.775 C 23.601 6.19 18.465 9.652 14.058 14.059 C 9.651 18.466 6.189 23.602 3.774 29.317 C 1.269 35.236 0 41.521 0 48.001 C 0 54.481 1.269 60.769 3.774 66.685 C 6.189 72.4 9.651 77.536 14.058 81.94 C 18.465 86.35 23.601 89.809 29.316 92.227 C 35.235 94.729 41.52 96.001 48 96.001 C 54.48 96.001 60.768 94.729 66.684 92.227 C 72.399 89.809 77.535 86.35 81.942 81.94 C 86.349 77.536 89.808 72.4 92.226 66.685 C 94.728 60.769 96 54.481 96 48.001 C 96 41.521 94.728 35.236 92.226 29.317 Z"/>
  <path style="fill: rgb(240, 240, 240);" d="M 0.018 49.348 C 0.183 55.351 1.443 61.18 3.774 66.685 C 6.189 72.4 9.651 77.536 14.058 81.94 C 18.465 86.35 23.601 89.809 29.316 92.227 C 35.235 94.729 41.52 96.001 48 96.001 C 54.48 96.001 60.768 94.729 66.684 92.227 C 72.399 89.809 77.535 86.35 81.942 81.94 C 86.349 77.536 89.808 72.4 92.226 66.685 C 94.56 61.18 95.817 55.351 95.982 49.348 L 0.018 49.348 Z"/>
  <path style="fill: rgb(34, 34, 36);" d="M 95.772 52.729 C 95.922 51.166 96 49.588 96 48.001 C 96 46.216 95.904 44.446 95.712 42.697 C 93.327 43.063 89.904 43.543 85.587 44.02 C 77.397 44.923 64.23 46 48 46 C 31.77 46 18.603 44.923 10.413 44.02 C 6.096 43.543 2.673 43.063 0.288 42.697 C 0.096 44.446 0 46.216 0 48.001 C 0 49.588 0.075 51.166 0.228 52.729 C 8.016 53.902 25.173 55.999 48 55.999 C 70.827 55.999 87.984 53.902 95.772 52.729 Z"/>
  <path style="fill:#E6E9ED;" d="M 58.002 49.999 C 58.002 55.525 53.523 60.001 48 60.001 C 42.477 60.001 37.998 55.525 37.998 49.999 C 37.998 44.479 42.477 40 48 40 C 53.523 40 58.002 44.479 58.002 49.999 Z"/>
  <path style="fill: rgb(34, 34, 36);" d="M 48 31.999 C 38.073 31.999 30 40.075 30 49.999 C 30 59.926 38.073 67.999 48 67.999 C 57.927 67.999 66 59.926 66 49.999 C 66 40.075 57.927 31.999 48 31.999 Z M 48 58.003 C 43.59 58.003 39.999 54.412 39.999 49.999 C 39.999 45.589 43.59 42.001 48 42.001 C 52.413 42.001 55.998 45.589 55.998 49.999 C 55.998 54.412 52.413 58.003 48 58.003 Z"/>
  <path style="opacity:0.2;fill:#FFFFFF;enable-background:new    ;" d="M 92.226 29.317 C 89.808 23.602 86.349 18.466 81.942 14.059 C 77.535 9.652 72.399 6.19 66.684 3.775 C 60.768 1.27 54.48 0.001 48 0.001 C 47.331 0.001 46.665 0.016 45.999 0.043 C 51.774 0.277 57.375 1.528 62.682 3.775 C 68.403 6.19 73.536 9.652 77.94 14.059 C 82.347 18.466 85.809 23.602 88.227 29.317 C 90.732 35.236 91.998 41.521 91.998 48.001 C 91.998 54.481 90.732 60.769 88.227 66.685 C 85.809 72.4 82.347 77.536 77.94 81.94 C 73.536 86.35 68.403 89.809 62.682 92.227 C 57.375 94.471 51.774 95.725 45.999 95.959 C 46.665 95.986 47.331 96.001 48 96.001 C 54.48 96.001 60.768 94.729 66.684 92.227 C 72.399 89.809 77.535 86.35 81.942 81.94 C 86.349 77.536 89.808 72.4 92.226 66.685 C 94.728 60.769 96 54.481 96 48.001 C 96 41.521 94.728 35.236 92.226 29.317 Z"/>
  <path style="opacity:0.1;enable-background:new    ;" d="M 3.774 66.685 C 6.189 72.4 9.651 77.536 14.058 81.94 C 18.465 86.35 23.601 89.809 29.316 92.227 C 35.235 94.729 41.52 96.001 48 96.001 C 48.669 96.001 49.335 95.986 50.001 95.959 C 44.226 95.725 38.625 94.471 33.315 92.227 C 27.6 89.809 22.467 86.35 18.06 81.94 C 13.65 77.536 10.191 72.4 7.773 66.685 C 5.268 60.769 4.002 54.481 4.002 48.001 C 4.002 41.521 5.268 35.236 7.773 29.317 C 10.191 23.602 13.65 18.466 18.06 14.062 C 22.467 9.652 27.6 6.19 33.315 3.775 C 38.625 1.528 44.226 0.277 49.998 0.043 C 49.335 0.016 48.669 0.001 48 0.001 C 41.52 0.001 35.235 1.27 29.316 3.775 C 23.601 6.19 18.465 9.652 14.058 14.062 C 9.651 18.466 6.189 23.602 3.774 29.317 C 1.269 35.236 0 41.521 0 48.001 C 0 54.481 1.269 60.769 3.774 66.685 Z"/>
  <g/>
  <g/>
  <g/>
  <g/>
  <g/>
  <g/>
  <g/>
  <g/>
  <g/>
  <g/>
  <g/>
  <g/>
  <g/>
  <g/>
  <g/>
</svg>